<svg version="1.1" id="Capa_1" xmlns="http://www.w3.org/2000/svg"
     x="0px" y="0px"
     viewBox="0 0 521.7 522" style="enable-background:new 0 0 521.7 522; xml:space=preserve;">
  <g>
    <g>
      <g>
        <path class="st0" fill="#2ec6c8" d="M372,205c1.7,4.1-0.2,8.8-4.2,10.5c-4.1,1.7-8.8-0.2-10.5-4.2c-2.2-5.2-4.9-10.2-8.1-14.8
          c-3.2-4.7-6.8-9.1-10.8-13.1l0,0c-4-4-8.4-7.7-13.1-10.8c-4.7-3.2-9.7-5.9-14.8-8.1c-4.1-1.7-5.9-6.4-4.2-10.4s6.4-6,10.4-4.2
          c6.2,2.7,12.1,5.9,17.5,9.5c5.6,3.8,10.8,8.1,15.5,12.7l0,0l0,0c4.7,4.7,9,9.9,12.7,15.4C366.2,192.9,369.4,198.8,372,205z"></path>
        <path class="st0" fill="#2ec6c8" d="M422.8,206.1c1.1,4.3-1.4,8.7-5.7,9.8c-4.3,1.1-8.7-1.4-9.8-5.7c-3.1-11.4-7.7-22.4-13.6-32.5
          c-5.9-10.2-13.2-19.6-21.6-28.1c-8.4-8.5-17.9-15.7-28.1-21.6c-10.1-5.9-21.1-10.5-32.5-13.5c-4.3-1.1-6.8-5.5-5.7-9.8
          c1.1-4.3,5.5-6.8,9.8-5.7c12.8,3.4,25,8.6,36.4,15.2c11.5,6.7,22,14.8,31.4,24.1c9.4,9.4,17.5,19.9,24.1,31.4
          C414.2,181.1,419.4,193.3,422.8,206.1z"></path>
        <path class="st0" fill="#2ec6c8" d="M472,206.6c0.8,4.3-2,8.5-6.3,9.4c-4.3,0.8-8.5-2-9.4-6.3c-3.5-17.7-9.7-34.7-18.1-50.5l-0.2-0.4
          c-8.4-15.6-19.2-30.1-32-42.9l0,0c-12.9-12.9-27.5-23.7-43.3-32.2c-15.8-8.4-32.8-14.6-50.5-18.1c-4.3-0.8-7.2-5.1-6.3-9.4
          c0.9-4.3,5.1-7.2,9.4-6.3c19.2,3.8,37.7,10.5,55,19.7c17.2,9.2,33.1,21,47.1,35l0,0c13.8,13.8,25.5,29.6,34.7,46.6l0.3,0.5
          C461.5,168.8,468.1,187.3,472,206.6z"></path>
        <path class="st0" fill="#2ec6c8" d="M513.4,423.5c3.6,2.6,4.3,7.6,1.7,11.2c-2.6,3.6-7.6,4.3-11.2,1.7l-124.7-91.4l-8.1,8.1l-12.9,12.9
          c-30.7,30.7-76.8,23.5-119.3-2.4c-15.9-9.7-31.3-22-45.1-35.8c-13.8-13.8-26.1-29.2-35.8-45.1c-25.9-42.5-33.2-88.5-2.7-119.1
          l21.2-21.2L90.8,25.1L52,63.6l0,0L51.7,64c-30.5,30.5-38.4,70.8-22.8,119.8C45,234.7,86.3,294.8,153.6,362.6l2.7,2.7l0,0
          c4.6,4.6,8.4,8.3,11.3,11.2c65.4,63.4,123.5,102.2,172.8,117.3c47.5,14.5,86.7,6.7,116.1-22.8l0.4-0.4l1-1l10.3-10.6
          c3.1-3.2,8.1-3.2,11.3-0.2c3.2,3.1,3.2,8.1,0.1,11.3l-10.3,10.6l0,0l-1,1l-0.4,0.5c-33.9,33.9-78.5,43.1-132.1,26.7
          c-51.8-15.8-112.1-56-179.3-121.1c-4.6-4.5-8.5-8.3-11.5-11.3l0,0l0,0l-2.7-2.7C73.1,304.2,30.6,242,13.6,188.7
          c-17.6-55.2-8.2-101,26.7-136l0.3-0.3l0,0l0,0l45.4-45C86.4,7,86.7,6.8,87,6.5c3.6-2.6,8.6-1.8,11.2,1.7L193.3,138
          c2.7,3.1,2.6,7.9-0.4,10.9L166.8,175c-24.3,24.3-17.2,63,5,99.4c9,14.7,20.5,29.1,33.5,42.1c13,13,27.4,24.5,42.1,33.5
          c36.4,22.2,75.2,29.2,99.6,4.7l12.9-12.9l12.9-12.9l0,0c2.7-2.7,7.1-3.2,10.4-0.8L513.4,423.5z"></path>
        <path class="st0" fill="#2ec6c8" d="M478.7,458.3c3.6,2.6,4.3,7.6,1.7,11.2c-2.6,3.6-7.6,4.3-11.2,1.7l-32.6-23.9l-32.6-23.9l-32.6-23.9
          c-3.6-2.6-4.3-7.6-1.7-11.2c2.6-3.6,7.6-4.3,11.2-1.7l32.6,23.9l32.6,23.9L478.7,458.3z"></path>
        <path class="st0" fill="#2ec6c8" d="M50.5,52.4c-2.6-3.6-1.8-8.6,1.7-11.2c3.6-2.6,8.6-1.8,11.2,1.7l23.9,32.6l23.9,32.6l23.9,32.6
          c2.6,3.6,1.8,8.6-1.7,11.2c-3.6,2.6-8.6,1.8-11.2-1.7l-23.9-32.6L74.4,85L50.5,52.4z"></path>
      </g>
    </g>
  </g>
</svg>
