<svg version="1.1" id="Layer_1" xmlns="http://www.w3.org/2000/svg"
     x="0px" y="0px"
     viewBox="0 0 520 520" style="enable-background:new 0 0 520 520; xml:space=preserve;">
  <style type="text/css">
    .st0 { stroke-width: 8; stroke-miterlimit: 10; }
  </style>
  <g>
    <g>
      <g>
        <path class="st0" fill="#2ec6c8" d="M403,256h-28.6l2.6-25.1c0.4-4.8-3-9.1-7.8-9.5s-9.1,3-9.5,7.8l-20.4,214.5c-3,31.2-29,55-60.2,55H162.9
          c-31.6,0-57.6-23.4-60.2-55l-19.5-205H260c4.8,0,8.7-3.9,8.7-8.7s-3.9-8.7-8.7-8.7H77.9c-0.9,0-1.3,0-2.2,0.4
          c-0.9-0.4-2.2-0.4-3-0.4c-4.8,0.4-8.2,4.8-7.8,9.5l20.4,214.5c3.5,40.4,36.8,70.7,77.6,70.7H279c40.3,0,73.7-30.3,77.6-70.6
          l1.7-20.4H403c28.6,0,52-23.4,52-52v-65C455,279.4,431.7,256,403,256z M403,407.7h-42.9l12.6-134.4h29.9
          c19.1,0,34.7,15.6,34.7,34.7v65h0.4C437.8,392.1,422.2,407.7,403,407.7z"></path>
        <path class="st0" fill="#2ec6c8" d="M290.3,230c0,4.8,3.9,8.7,8.7,8.7h13c4.8,0,8.7-3.9,8.7-8.7s-3.9-8.7-8.7-8.7h-13
          C294.3,221.3,290.3,225.2,290.3,230z"></path>
        <path class="st0" fill="#2ec6c8" d="M147.8,184.5c0.9,3.9,4.8,6.5,8.2,6.5c0.9,0,1.7,0,2.2-0.4c4.8-1.3,7.4-6.1,6.1-10.8l-9.5-33.8
          c-4.3-14.7-2.2-30.3,5.6-43.8l3.5-5.6c6.5-11.3,10-23,10-35.1c0-4.8-3.9-8.7-8.7-8.7c-4.8,0-8.7,3.9-8.7,8.7
          c0,9.1-2.6,17.8-7.4,26.4l-3.5,5.6c-10.4,17.3-13,38.1-7.4,57.6L147.8,184.5z"></path>
        <path class="st0" fill="#2ec6c8" d="M212.8,184.5c0.9,3.9,4.8,6.5,8.2,6.5c0.9,0,1.7,0,2.2-0.4c4.8-1.3,7.4-6.1,6.1-10.8l-9.5-33.8
          c-4.3-14.7-2.2-30.3,5.6-43.8l3.5-6.1c9.1-16,12.1-35.1,8.2-53.7l-7.8-31.6c-1.3-4.8-5.6-7.4-10.4-6.5c-4.8,1.3-7.4,5.6-6.5,10.4
          l7.8,31.2c3,13.9,0.9,28.6-6.1,40.7l-3.5,5.6c-10.4,17.3-13,38.1-7.4,57.6L212.8,184.5z"></path>
        <path class="st0" fill="#2ec6c8" d="M277.8,184.5c0.9,3.9,4.8,6.5,8.2,6.5c0.9,0,1.7,0,2.2-0.4c4.8-1.3,7.4-6.1,6.1-10.8l-9.5-33.8
          c-4.3-14.7-2.2-30.3,5.6-43.8c2.6-4.3,0.9-9.5-3-11.7c-4.3-2.6-9.5-0.9-11.7,3c-10.4,17.3-13,38.1-7.4,57.6L277.8,184.5z"></path>
      </g>
    </g>
  </g>
</svg>
